<mxfile host="app.diagrams.net" modified="2024-06-03T12:50:30.859Z" agent="Mozilla/5.0 (Windows NT 10.0; Win64; x64) AppleWebKit/537.36 (KHTML, like Gecko) Chrome/125.0.0.0 Safari/537.36 Edg/125.0.0.0" etag="SerZwAEEQ5Sd2tGJahX7" version="24.4.13" type="device">
  <diagram name="Page-1" id="CsIHO_Xz1bxgaw1YznOy">
    <mxGraphModel dx="1781" dy="1008" grid="1" gridSize="10" guides="1" tooltips="1" connect="1" arrows="1" fold="1" page="1" pageScale="1" pageWidth="827" pageHeight="1169" math="0" shadow="0">
      <root>
        <mxCell id="0" />
        <mxCell id="1" parent="0" />
        <mxCell id="MJrBd8KAzi7bjaOnasGY-1" value="ATC" style="rounded=0;whiteSpace=wrap;html=1;" vertex="1" parent="1">
          <mxGeometry x="280" y="210" width="120" height="60" as="geometry" />
        </mxCell>
        <mxCell id="MJrBd8KAzi7bjaOnasGY-26" style="edgeStyle=orthogonalEdgeStyle;rounded=0;orthogonalLoop=1;jettySize=auto;html=1;exitX=0.5;exitY=0;exitDx=0;exitDy=0;" edge="1" parent="1" source="MJrBd8KAzi7bjaOnasGY-3" target="MJrBd8KAzi7bjaOnasGY-1">
          <mxGeometry relative="1" as="geometry" />
        </mxCell>
        <mxCell id="MJrBd8KAzi7bjaOnasGY-28" style="edgeStyle=orthogonalEdgeStyle;rounded=0;orthogonalLoop=1;jettySize=auto;html=1;exitX=0.5;exitY=1;exitDx=0;exitDy=0;" edge="1" parent="1" source="MJrBd8KAzi7bjaOnasGY-3" target="MJrBd8KAzi7bjaOnasGY-44">
          <mxGeometry relative="1" as="geometry">
            <mxPoint x="430" y="423" as="targetPoint" />
          </mxGeometry>
        </mxCell>
        <mxCell id="MJrBd8KAzi7bjaOnasGY-3" value="Flight Plan" style="rounded=0;whiteSpace=wrap;html=1;" vertex="1" parent="1">
          <mxGeometry x="370" y="320" width="120" height="60" as="geometry" />
        </mxCell>
        <mxCell id="MJrBd8KAzi7bjaOnasGY-32" style="edgeStyle=orthogonalEdgeStyle;rounded=0;orthogonalLoop=1;jettySize=auto;html=1;exitX=0.5;exitY=1;exitDx=0;exitDy=0;" edge="1" parent="1" source="MJrBd8KAzi7bjaOnasGY-8" target="MJrBd8KAzi7bjaOnasGY-9">
          <mxGeometry relative="1" as="geometry" />
        </mxCell>
        <mxCell id="MJrBd8KAzi7bjaOnasGY-8" value="Runway" style="rounded=0;whiteSpace=wrap;html=1;" vertex="1" parent="1">
          <mxGeometry x="265" y="690" width="120" height="60" as="geometry" />
        </mxCell>
        <mxCell id="MJrBd8KAzi7bjaOnasGY-33" style="edgeStyle=orthogonalEdgeStyle;rounded=0;orthogonalLoop=1;jettySize=auto;html=1;exitX=0.5;exitY=1;exitDx=0;exitDy=0;" edge="1" parent="1" source="MJrBd8KAzi7bjaOnasGY-9" target="MJrBd8KAzi7bjaOnasGY-10">
          <mxGeometry relative="1" as="geometry" />
        </mxCell>
        <mxCell id="MJrBd8KAzi7bjaOnasGY-9" value="- Runway Number&lt;div&gt;- Runway Status&lt;/div&gt;" style="rounded=0;whiteSpace=wrap;html=1;align=left;" vertex="1" parent="1">
          <mxGeometry x="265" y="790" width="120" height="60" as="geometry" />
        </mxCell>
        <mxCell id="MJrBd8KAzi7bjaOnasGY-10" value="- Check if runway clear&lt;div&gt;- Join runway queue&lt;/div&gt;&lt;div&gt;- Drop runway queue&lt;/div&gt;" style="rounded=0;whiteSpace=wrap;html=1;align=left;" vertex="1" parent="1">
          <mxGeometry x="250" y="890" width="150" height="60" as="geometry" />
        </mxCell>
        <mxCell id="MJrBd8KAzi7bjaOnasGY-39" style="edgeStyle=orthogonalEdgeStyle;rounded=0;orthogonalLoop=1;jettySize=auto;html=1;exitX=0.5;exitY=1;exitDx=0;exitDy=0;" edge="1" parent="1" source="MJrBd8KAzi7bjaOnasGY-15" target="MJrBd8KAzi7bjaOnasGY-16">
          <mxGeometry relative="1" as="geometry" />
        </mxCell>
        <mxCell id="MJrBd8KAzi7bjaOnasGY-15" value="Maintainance Staff" style="rounded=0;whiteSpace=wrap;html=1;" vertex="1" parent="1">
          <mxGeometry x="590" y="410" width="120" height="60" as="geometry" />
        </mxCell>
        <mxCell id="MJrBd8KAzi7bjaOnasGY-40" style="edgeStyle=orthogonalEdgeStyle;rounded=0;orthogonalLoop=1;jettySize=auto;html=1;exitX=0.5;exitY=1;exitDx=0;exitDy=0;" edge="1" parent="1" source="MJrBd8KAzi7bjaOnasGY-16" target="MJrBd8KAzi7bjaOnasGY-17">
          <mxGeometry relative="1" as="geometry" />
        </mxCell>
        <mxCell id="MJrBd8KAzi7bjaOnasGY-16" value="- Staff ID&lt;div&gt;- Name&lt;/div&gt;" style="rounded=0;whiteSpace=wrap;html=1;align=left;" vertex="1" parent="1">
          <mxGeometry x="590" y="520" width="120" height="60" as="geometry" />
        </mxCell>
        <mxCell id="MJrBd8KAzi7bjaOnasGY-41" style="edgeStyle=orthogonalEdgeStyle;rounded=0;orthogonalLoop=1;jettySize=auto;html=1;exitX=0.5;exitY=1;exitDx=0;exitDy=0;" edge="1" parent="1" source="MJrBd8KAzi7bjaOnasGY-17" target="MJrBd8KAzi7bjaOnasGY-18">
          <mxGeometry relative="1" as="geometry" />
        </mxCell>
        <mxCell id="MJrBd8KAzi7bjaOnasGY-17" value="- Login: Username&lt;div&gt;- Password&lt;/div&gt;&lt;div&gt;- Perform Maintenance&lt;/div&gt;" style="rounded=0;whiteSpace=wrap;html=1;align=left;" vertex="1" parent="1">
          <mxGeometry x="580" y="630" width="140" height="60" as="geometry" />
        </mxCell>
        <mxCell id="MJrBd8KAzi7bjaOnasGY-42" style="edgeStyle=orthogonalEdgeStyle;rounded=0;orthogonalLoop=1;jettySize=auto;html=1;exitX=0.5;exitY=1;exitDx=0;exitDy=0;" edge="1" parent="1" source="MJrBd8KAzi7bjaOnasGY-18" target="MJrBd8KAzi7bjaOnasGY-38">
          <mxGeometry relative="1" as="geometry" />
        </mxCell>
        <mxCell id="MJrBd8KAzi7bjaOnasGY-18" value="ATC System" style="rounded=0;whiteSpace=wrap;html=1;" vertex="1" parent="1">
          <mxGeometry x="590" y="740" width="120" height="60" as="geometry" />
        </mxCell>
        <mxCell id="MJrBd8KAzi7bjaOnasGY-25" style="edgeStyle=orthogonalEdgeStyle;rounded=0;orthogonalLoop=1;jettySize=auto;html=1;exitX=0.5;exitY=0;exitDx=0;exitDy=0;" edge="1" parent="1" source="MJrBd8KAzi7bjaOnasGY-20" target="MJrBd8KAzi7bjaOnasGY-1">
          <mxGeometry relative="1" as="geometry" />
        </mxCell>
        <mxCell id="MJrBd8KAzi7bjaOnasGY-27" style="edgeStyle=orthogonalEdgeStyle;rounded=0;orthogonalLoop=1;jettySize=auto;html=1;exitX=0.5;exitY=1;exitDx=0;exitDy=0;" edge="1" parent="1" source="MJrBd8KAzi7bjaOnasGY-20" target="MJrBd8KAzi7bjaOnasGY-21">
          <mxGeometry relative="1" as="geometry" />
        </mxCell>
        <mxCell id="MJrBd8KAzi7bjaOnasGY-20" value="Pilot" style="rounded=0;whiteSpace=wrap;html=1;" vertex="1" parent="1">
          <mxGeometry x="160" y="320" width="120" height="60" as="geometry" />
        </mxCell>
        <mxCell id="MJrBd8KAzi7bjaOnasGY-29" style="edgeStyle=orthogonalEdgeStyle;rounded=0;orthogonalLoop=1;jettySize=auto;html=1;exitX=0.5;exitY=1;exitDx=0;exitDy=0;" edge="1" parent="1" source="MJrBd8KAzi7bjaOnasGY-21" target="MJrBd8KAzi7bjaOnasGY-22">
          <mxGeometry relative="1" as="geometry" />
        </mxCell>
        <mxCell id="MJrBd8KAzi7bjaOnasGY-21" value="Credentials:&lt;div&gt;- License&lt;/div&gt;&lt;div&gt;- Type Rating&lt;/div&gt;&lt;div&gt;- Attached Airline&lt;/div&gt;" style="rounded=0;whiteSpace=wrap;html=1;align=left;" vertex="1" parent="1">
          <mxGeometry x="161" y="410" width="120" height="87" as="geometry" />
        </mxCell>
        <mxCell id="MJrBd8KAzi7bjaOnasGY-31" style="edgeStyle=orthogonalEdgeStyle;rounded=0;orthogonalLoop=1;jettySize=auto;html=1;exitX=0.5;exitY=1;exitDx=0;exitDy=0;" edge="1" parent="1" source="MJrBd8KAzi7bjaOnasGY-22" target="MJrBd8KAzi7bjaOnasGY-8">
          <mxGeometry relative="1" as="geometry" />
        </mxCell>
        <mxCell id="MJrBd8KAzi7bjaOnasGY-22" value="&lt;div&gt;Validate fit for Flight&lt;/div&gt;" style="rounded=0;whiteSpace=wrap;html=1;align=left;" vertex="1" parent="1">
          <mxGeometry x="161" y="532" width="120" height="60" as="geometry" />
        </mxCell>
        <mxCell id="MJrBd8KAzi7bjaOnasGY-38" value="- Login: Username&lt;div&gt;- Password&lt;/div&gt;&lt;div&gt;- Perform Maintenance&lt;/div&gt;" style="rounded=0;whiteSpace=wrap;html=1;align=left;" vertex="1" parent="1">
          <mxGeometry x="580" y="850" width="140" height="60" as="geometry" />
        </mxCell>
        <mxCell id="MJrBd8KAzi7bjaOnasGY-43" style="edgeStyle=orthogonalEdgeStyle;rounded=0;orthogonalLoop=1;jettySize=auto;html=1;exitX=0.5;exitY=1;exitDx=0;exitDy=0;" edge="1" source="MJrBd8KAzi7bjaOnasGY-44" target="MJrBd8KAzi7bjaOnasGY-45" parent="1">
          <mxGeometry relative="1" as="geometry" />
        </mxCell>
        <mxCell id="MJrBd8KAzi7bjaOnasGY-44" value="Flight Details&lt;div&gt;- Departing Country&lt;/div&gt;&lt;div&gt;- Arrival Country&lt;/div&gt;&lt;div style=&quot;&quot;&gt;- Flight Number&lt;/div&gt;&lt;div style=&quot;&quot;&gt;- Souls on Board&lt;/div&gt;" style="rounded=0;whiteSpace=wrap;html=1;align=left;" vertex="1" parent="1">
          <mxGeometry x="369" y="423" width="120" height="87" as="geometry" />
        </mxCell>
        <mxCell id="MJrBd8KAzi7bjaOnasGY-45" value="Validate Flightplan" style="rounded=0;whiteSpace=wrap;html=1;align=center;" vertex="1" parent="1">
          <mxGeometry x="370" y="532" width="120" height="60" as="geometry" />
        </mxCell>
      </root>
    </mxGraphModel>
  </diagram>
</mxfile>
